<?xml version="1.0" encoding="UTF-8" standalone="no"?>
<!-- Created with Inkscape (http://www.inkscape.org/) -->

<svg
   xmlns:dc="http://purl.org/dc/elements/1.1/"
   xmlns:cc="http://creativecommons.org/ns#"
   xmlns:rdf="http://www.w3.org/1999/02/22-rdf-syntax-ns#"
   xmlns:svg="http://www.w3.org/2000/svg"
   xmlns="http://www.w3.org/2000/svg"
   xmlns:sodipodi="http://sodipodi.sourceforge.net/DTD/sodipodi-0.dtd"
   xmlns:inkscape="http://www.inkscape.org/namespaces/inkscape"
   width="162"
   height="82"
   viewBox="0 0 45.893694 21.695833"
   version="1.1"
   id="svg8"
   inkscape:version="0.92.2 (5c3e80d, 2017-08-06)"
   sodipodi:docname="logo.svg">
  <defs
     id="defs2" />
  <sodipodi:namedview
     id="base"
     pagecolor="#ffffff"
     bordercolor="#666666"
     borderopacity="1.0"
     inkscape:pageopacity="0.0"
     inkscape:pageshadow="2"
     inkscape:zoom="2.8"
     inkscape:cx="-14.467417"
     inkscape:cy="40.706539"
     inkscape:document-units="px"
     inkscape:current-layer="layer1"
     showgrid="false"
     inkscape:window-width="1920"
     inkscape:window-height="986"
     inkscape:window-x="-11"
     inkscape:window-y="-11"
     inkscape:window-maximized="1"
     fit-margin-top="0"
     fit-margin-left="0"
     fit-margin-right="0"
     fit-margin-bottom="0"
     showborder="false"
     inkscape:pagecheckerboard="true"
     units="px" />
  <metadata
     id="metadata5">
    <rdf:RDF>
      <cc:Work
         rdf:about="">
        <dc:format>image/svg+xml</dc:format>
        <dc:type
           rdf:resource="http://purl.org/dc/dcmitype/StillImage" />
        <dc:title></dc:title>
      </cc:Work>
    </rdf:RDF>
  </metadata>
  <g
     inkscape:label="Layer 1"
     inkscape:groupmode="layer"
     id="layer1"
     transform="translate(-5.7874395,-158.59382)">
    <g
       id="g4577"
       transform="matrix(1.4024025,0,0,1.1446041,-147.08041,-105.72087)"
       inkscape:export-xdpi="96"
       inkscape:export-ydpi="96"
       style="fill:#ff9d00;fill-opacity:1;stroke:#000000;stroke-opacity:0.08235294">
      <path
         sodipodi:nodetypes="cccccccccccccccc"
         inkscape:connector-curvature="0"
         id="path23"
         d="m 117.38718,237.95019 8.24475,-1.23612 5.01174,1.13589 v 2.03793 h 1.46999 v 4.30968 h -3.04019 v -4.34313 l -3.44154,0.30474 v -1.00632 l -8.24475,0.83117 v -0.66412 l 8.24475,-0.86863 v -1.00226 l -8.24475,1.20271 z"
         style="fill:#ff9d00;fill-opacity:1;stroke:#000000;stroke-width:0.26458332px;stroke-linecap:butt;stroke-linejoin:miter;stroke-opacity:0.08235294" />
      <path
         sodipodi:nodetypes="ccccc"
         inkscape:connector-curvature="0"
         id="path25"
         d="m 117.38718,240.73977 5.77397,-0.43432 v 0.73905 l -5.77397,0.38706 z"
         style="fill:#ff9d00;fill-opacity:1;stroke:#000000;stroke-width:0.26458332px;stroke-linecap:butt;stroke-linejoin:miter;stroke-opacity:0.08235294" />
      <path
         sodipodi:nodetypes="ccccc"
         inkscape:connector-curvature="0"
         id="path27"
         d="m 117.38718,241.99258 5.77397,-0.16704 v 0.7684 l -5.77397,0.15726 z"
         style="fill:#ff9d00;fill-opacity:1;stroke:#000000;stroke-width:0.26458332px;stroke-linecap:butt;stroke-linejoin:miter;stroke-opacity:0.08235294" />
      <path
         sodipodi:nodetypes="ccccc"
         inkscape:connector-curvature="0"
         id="path29"
         d="m 117.38718,243.49479 5.77397,-0.011 v 0.71378 h -5.77397 z"
         style="fill:#ff9d00;fill-opacity:1;stroke:#000000;stroke-width:0.26458332px;stroke-linecap:butt;stroke-linejoin:miter;stroke-opacity:0.08235294" />
      <path
         sodipodi:nodetypes="cc"
         inkscape:connector-curvature="0"
         id="path33"
         d="m 132.26506,239.67074 -5e-5,-6e-5"
         style="fill:#ff9d00;fill-opacity:1;stroke:#000000;stroke-width:0.26458332px;stroke-linecap:butt;stroke-linejoin:miter;stroke-opacity:0.08235294" />
      <path
         sodipodi:nodetypes="ccsccccccccccccccccccccccccccccccccccccccccccccccc"
         inkscape:connector-curvature="0"
         id="path35"
         d="m 137.00375,244.19757 h -4.89009 c -0.0263,-0.31885 0,-0.41581 0,-0.41581 0.3476,0.008 0.76012,-0.0703 1.63004,-0.0525 v -0.51972 l -1.63004,0.053 v -0.57388 l 1.63004,-0.0501 v -0.54622 l -1.63004,0.0627 v -0.52545 l 1.63004,-0.0196 v -0.55313 l -1.63004,-0.0208 v -0.47247 l 1.63004,0.0208 v -0.55431 l -2.18709,0.0293 -0.0334,-0.44765 2.22049,-0.0709 v -0.81703 l -3.28355,0.30424 -0.01,-0.44192 3.29355,-0.38895 v -0.56005 l -3.4963,0.32786 -0.43787,-0.30424 3.93417,-0.52258 v -0.624 l -5.00818,0.74212 v -0.50397 l 5.00818,-0.76884 v -0.66027 l -5.00818,0.92514 v -0.50397 l 5.00818,-0.95877 v -0.56578 l -5.00818,1.02058 v -0.50396 l 5.00818,-0.98337 v -0.64069 l -5.00818,1.12009 v -0.50397 l 5.00818,-1.05519 v -0.75881 l -5.00818,1.31003 v -0.50397 l 5.00818,-1.27567 3.26005,1.53553 z"
         style="fill:#ff9d00;fill-opacity:1;stroke:#000000;stroke-width:0.26458332px;stroke-linecap:butt;stroke-linejoin:miter;stroke-opacity:0.08235294" />
      <text
         id="text4567"
         y="248.61903"
         x="110.01469"
         style="font-style:normal;font-variant:normal;font-weight:normal;font-stretch:normal;font-size:4.93888903px;line-height:1.25;font-family:serif;-inkscape-font-specification:serif;letter-spacing:0px;word-spacing:0px;fill:#ff9d00;fill-opacity:1;stroke:#000000;stroke-width:0.26458332;stroke-opacity:0.08235294"
         xml:space="preserve"><tspan
           style="font-style:normal;font-variant:normal;font-weight:normal;font-stretch:normal;font-size:4.93888903px;font-family:serif;-inkscape-font-specification:serif;fill:#ff9d00;fill-opacity:1;stroke:#000000;stroke-width:0.26458332;stroke-opacity:0.08235294"
           y="248.61903"
           x="110.01469"
           id="tspan4565"
           sodipodi:role="line">СевНовастрой</tspan></text>
    </g>
  </g>
</svg>
